<mxfile host="drawio-plugin" modified="2022-04-28T18:08:42.496Z" agent="5.0 (Macintosh; Intel Mac OS X 12_3_1) AppleWebKit/537.36 (KHTML, like Gecko) Chrome/89.0.4389.114 Safari/537.36" etag="WA1J7PpGvcG_qQ5tV3yg" version="15.5.4" type="embed"><diagram id="QWmB7DJVif1qoW9SdkZe" name="Page-1"><mxGraphModel dx="776" dy="601" grid="1" gridSize="10" guides="1" tooltips="1" connect="1" arrows="1" fold="1" page="1" pageScale="1" pageWidth="827" pageHeight="1169" math="0" shadow="0"><root><mxCell id="0"/><mxCell id="1" parent="0"/><mxCell id="2ki1Np-30deIIWeYPDGX-31" value="URL" style="shape=table;startSize=30;container=1;collapsible=1;childLayout=tableLayout;fixedRows=1;rowLines=0;fontStyle=1;align=center;resizeLast=1;" parent="1" vertex="1"><mxGeometry x="194" y="310" width="180" height="240" as="geometry"/></mxCell><mxCell id="2ki1Np-30deIIWeYPDGX-32" value="" style="shape=tableRow;horizontal=0;startSize=0;swimlaneHead=0;swimlaneBody=0;fillColor=none;collapsible=0;dropTarget=0;points=[[0,0.5],[1,0.5]];portConstraint=eastwest;top=0;left=0;right=0;bottom=1;" parent="2ki1Np-30deIIWeYPDGX-31" vertex="1"><mxGeometry y="30" width="180" height="30" as="geometry"/></mxCell><mxCell id="2ki1Np-30deIIWeYPDGX-33" value="PK" style="shape=partialRectangle;connectable=0;fillColor=none;top=0;left=0;bottom=0;right=0;fontStyle=1;overflow=hidden;" parent="2ki1Np-30deIIWeYPDGX-32" vertex="1"><mxGeometry width="30" height="30" as="geometry"><mxRectangle width="30" height="30" as="alternateBounds"/></mxGeometry></mxCell><mxCell id="2ki1Np-30deIIWeYPDGX-34" value="id INTEGER" style="shape=partialRectangle;connectable=0;fillColor=none;top=0;left=0;bottom=0;right=0;align=left;spacingLeft=6;fontStyle=5;overflow=hidden;" parent="2ki1Np-30deIIWeYPDGX-32" vertex="1"><mxGeometry x="30" width="150" height="30" as="geometry"><mxRectangle width="150" height="30" as="alternateBounds"/></mxGeometry></mxCell><mxCell id="2ki1Np-30deIIWeYPDGX-60" value="" style="shape=tableRow;horizontal=0;startSize=0;swimlaneHead=0;swimlaneBody=0;fillColor=none;collapsible=0;dropTarget=0;points=[[0,0.5],[1,0.5]];portConstraint=eastwest;top=0;left=0;right=0;bottom=0;" parent="2ki1Np-30deIIWeYPDGX-31" vertex="1"><mxGeometry y="60" width="180" height="30" as="geometry"/></mxCell><mxCell id="2ki1Np-30deIIWeYPDGX-61" value="FK" style="shape=partialRectangle;connectable=0;fillColor=none;top=0;left=0;bottom=0;right=0;fontStyle=0;overflow=hidden;" parent="2ki1Np-30deIIWeYPDGX-60" vertex="1"><mxGeometry width="30" height="30" as="geometry"><mxRectangle width="30" height="30" as="alternateBounds"/></mxGeometry></mxCell><mxCell id="2ki1Np-30deIIWeYPDGX-62" value="user_id" style="shape=partialRectangle;connectable=0;fillColor=none;top=0;left=0;bottom=0;right=0;align=left;spacingLeft=6;fontStyle=0;overflow=hidden;" parent="2ki1Np-30deIIWeYPDGX-60" vertex="1"><mxGeometry x="30" width="150" height="30" as="geometry"><mxRectangle width="150" height="30" as="alternateBounds"/></mxGeometry></mxCell><mxCell id="2ki1Np-30deIIWeYPDGX-35" value="" style="shape=tableRow;horizontal=0;startSize=0;swimlaneHead=0;swimlaneBody=0;fillColor=none;collapsible=0;dropTarget=0;points=[[0,0.5],[1,0.5]];portConstraint=eastwest;top=0;left=0;right=0;bottom=0;" parent="2ki1Np-30deIIWeYPDGX-31" vertex="1"><mxGeometry y="90" width="180" height="30" as="geometry"/></mxCell><mxCell id="2ki1Np-30deIIWeYPDGX-36" value="" style="shape=partialRectangle;connectable=0;fillColor=none;top=0;left=0;bottom=0;right=0;editable=1;overflow=hidden;" parent="2ki1Np-30deIIWeYPDGX-35" vertex="1"><mxGeometry width="30" height="30" as="geometry"><mxRectangle width="30" height="30" as="alternateBounds"/></mxGeometry></mxCell><mxCell id="2ki1Np-30deIIWeYPDGX-37" value="long_url VARCHAR(250)" style="shape=partialRectangle;connectable=0;fillColor=none;top=0;left=0;bottom=0;right=0;align=left;spacingLeft=6;overflow=hidden;" parent="2ki1Np-30deIIWeYPDGX-35" vertex="1"><mxGeometry x="30" width="150" height="30" as="geometry"><mxRectangle width="150" height="30" as="alternateBounds"/></mxGeometry></mxCell><mxCell id="2ki1Np-30deIIWeYPDGX-38" value="" style="shape=tableRow;horizontal=0;startSize=0;swimlaneHead=0;swimlaneBody=0;fillColor=none;collapsible=0;dropTarget=0;points=[[0,0.5],[1,0.5]];portConstraint=eastwest;top=0;left=0;right=0;bottom=0;" parent="2ki1Np-30deIIWeYPDGX-31" vertex="1"><mxGeometry y="120" width="180" height="30" as="geometry"/></mxCell><mxCell id="2ki1Np-30deIIWeYPDGX-39" value="" style="shape=partialRectangle;connectable=0;fillColor=none;top=0;left=0;bottom=0;right=0;editable=1;overflow=hidden;" parent="2ki1Np-30deIIWeYPDGX-38" vertex="1"><mxGeometry width="30" height="30" as="geometry"><mxRectangle width="30" height="30" as="alternateBounds"/></mxGeometry></mxCell><mxCell id="2ki1Np-30deIIWeYPDGX-40" value="short VARCHAR(10)" style="shape=partialRectangle;connectable=0;fillColor=none;top=0;left=0;bottom=0;right=0;align=left;spacingLeft=6;overflow=hidden;" parent="2ki1Np-30deIIWeYPDGX-38" vertex="1"><mxGeometry x="30" width="150" height="30" as="geometry"><mxRectangle width="150" height="30" as="alternateBounds"/></mxGeometry></mxCell><mxCell id="2ki1Np-30deIIWeYPDGX-57" value="" style="shape=tableRow;horizontal=0;startSize=0;swimlaneHead=0;swimlaneBody=0;fillColor=none;collapsible=0;dropTarget=0;points=[[0,0.5],[1,0.5]];portConstraint=eastwest;top=0;left=0;right=0;bottom=0;" parent="2ki1Np-30deIIWeYPDGX-31" vertex="1"><mxGeometry y="150" width="180" height="30" as="geometry"/></mxCell><mxCell id="2ki1Np-30deIIWeYPDGX-58" value="" style="shape=partialRectangle;connectable=0;fillColor=none;top=0;left=0;bottom=0;right=0;editable=1;overflow=hidden;" parent="2ki1Np-30deIIWeYPDGX-57" vertex="1"><mxGeometry width="30" height="30" as="geometry"><mxRectangle width="30" height="30" as="alternateBounds"/></mxGeometry></mxCell><mxCell id="2ki1Np-30deIIWeYPDGX-59" value="created_date" style="shape=partialRectangle;connectable=0;fillColor=none;top=0;left=0;bottom=0;right=0;align=left;spacingLeft=6;overflow=hidden;" parent="2ki1Np-30deIIWeYPDGX-57" vertex="1"><mxGeometry x="30" width="150" height="30" as="geometry"><mxRectangle width="150" height="30" as="alternateBounds"/></mxGeometry></mxCell><mxCell id="2ki1Np-30deIIWeYPDGX-67" value="" style="shape=tableRow;horizontal=0;startSize=0;swimlaneHead=0;swimlaneBody=0;fillColor=none;collapsible=0;dropTarget=0;points=[[0,0.5],[1,0.5]];portConstraint=eastwest;top=0;left=0;right=0;bottom=0;" parent="2ki1Np-30deIIWeYPDGX-31" vertex="1"><mxGeometry y="180" width="180" height="30" as="geometry"/></mxCell><mxCell id="2ki1Np-30deIIWeYPDGX-68" value="" style="shape=partialRectangle;connectable=0;fillColor=none;top=0;left=0;bottom=0;right=0;editable=1;overflow=hidden;" parent="2ki1Np-30deIIWeYPDGX-67" vertex="1"><mxGeometry width="30" height="30" as="geometry"><mxRectangle width="30" height="30" as="alternateBounds"/></mxGeometry></mxCell><mxCell id="2ki1Np-30deIIWeYPDGX-69" value="updated_date" style="shape=partialRectangle;connectable=0;fillColor=none;top=0;left=0;bottom=0;right=0;align=left;spacingLeft=6;overflow=hidden;" parent="2ki1Np-30deIIWeYPDGX-67" vertex="1"><mxGeometry x="30" width="150" height="30" as="geometry"><mxRectangle width="150" height="30" as="alternateBounds"/></mxGeometry></mxCell><mxCell id="2ki1Np-30deIIWeYPDGX-70" value="" style="shape=tableRow;horizontal=0;startSize=0;swimlaneHead=0;swimlaneBody=0;fillColor=none;collapsible=0;dropTarget=0;points=[[0,0.5],[1,0.5]];portConstraint=eastwest;top=0;left=0;right=0;bottom=0;" parent="2ki1Np-30deIIWeYPDGX-31" vertex="1"><mxGeometry y="210" width="180" height="30" as="geometry"/></mxCell><mxCell id="2ki1Np-30deIIWeYPDGX-71" value="" style="shape=partialRectangle;connectable=0;fillColor=none;top=0;left=0;bottom=0;right=0;editable=1;overflow=hidden;" parent="2ki1Np-30deIIWeYPDGX-70" vertex="1"><mxGeometry width="30" height="30" as="geometry"><mxRectangle width="30" height="30" as="alternateBounds"/></mxGeometry></mxCell><mxCell id="2ki1Np-30deIIWeYPDGX-72" value="expired_date" style="shape=partialRectangle;connectable=0;fillColor=none;top=0;left=0;bottom=0;right=0;align=left;spacingLeft=6;overflow=hidden;" parent="2ki1Np-30deIIWeYPDGX-70" vertex="1"><mxGeometry x="30" width="150" height="30" as="geometry"><mxRectangle width="150" height="30" as="alternateBounds"/></mxGeometry></mxCell><mxCell id="2ki1Np-30deIIWeYPDGX-73" value="USER" style="shape=table;startSize=30;container=1;collapsible=1;childLayout=tableLayout;fixedRows=1;rowLines=0;fontStyle=1;align=center;resizeLast=1;" parent="1" vertex="1"><mxGeometry x="434" y="410" width="200" height="150" as="geometry"/></mxCell><mxCell id="2ki1Np-30deIIWeYPDGX-74" value="" style="shape=tableRow;horizontal=0;startSize=0;swimlaneHead=0;swimlaneBody=0;fillColor=none;collapsible=0;dropTarget=0;points=[[0,0.5],[1,0.5]];portConstraint=eastwest;top=0;left=0;right=0;bottom=1;" parent="2ki1Np-30deIIWeYPDGX-73" vertex="1"><mxGeometry y="30" width="200" height="30" as="geometry"/></mxCell><mxCell id="2ki1Np-30deIIWeYPDGX-75" value="PK" style="shape=partialRectangle;connectable=0;fillColor=none;top=0;left=0;bottom=0;right=0;fontStyle=1;overflow=hidden;" parent="2ki1Np-30deIIWeYPDGX-74" vertex="1"><mxGeometry width="30" height="30" as="geometry"><mxRectangle width="30" height="30" as="alternateBounds"/></mxGeometry></mxCell><mxCell id="2ki1Np-30deIIWeYPDGX-76" value="id" style="shape=partialRectangle;connectable=0;fillColor=none;top=0;left=0;bottom=0;right=0;align=left;spacingLeft=6;fontStyle=5;overflow=hidden;" parent="2ki1Np-30deIIWeYPDGX-74" vertex="1"><mxGeometry x="30" width="170" height="30" as="geometry"><mxRectangle width="170" height="30" as="alternateBounds"/></mxGeometry></mxCell><mxCell id="2ki1Np-30deIIWeYPDGX-77" value="" style="shape=tableRow;horizontal=0;startSize=0;swimlaneHead=0;swimlaneBody=0;fillColor=none;collapsible=0;dropTarget=0;points=[[0,0.5],[1,0.5]];portConstraint=eastwest;top=0;left=0;right=0;bottom=0;" parent="2ki1Np-30deIIWeYPDGX-73" vertex="1"><mxGeometry y="60" width="200" height="30" as="geometry"/></mxCell><mxCell id="2ki1Np-30deIIWeYPDGX-78" value="" style="shape=partialRectangle;connectable=0;fillColor=none;top=0;left=0;bottom=0;right=0;editable=1;overflow=hidden;" parent="2ki1Np-30deIIWeYPDGX-77" vertex="1"><mxGeometry width="30" height="30" as="geometry"><mxRectangle width="30" height="30" as="alternateBounds"/></mxGeometry></mxCell><mxCell id="2ki1Np-30deIIWeYPDGX-79" value="email" style="shape=partialRectangle;connectable=0;fillColor=none;top=0;left=0;bottom=0;right=0;align=left;spacingLeft=6;overflow=hidden;" parent="2ki1Np-30deIIWeYPDGX-77" vertex="1"><mxGeometry x="30" width="170" height="30" as="geometry"><mxRectangle width="170" height="30" as="alternateBounds"/></mxGeometry></mxCell><mxCell id="2ki1Np-30deIIWeYPDGX-80" value="" style="shape=tableRow;horizontal=0;startSize=0;swimlaneHead=0;swimlaneBody=0;fillColor=none;collapsible=0;dropTarget=0;points=[[0,0.5],[1,0.5]];portConstraint=eastwest;top=0;left=0;right=0;bottom=0;" parent="2ki1Np-30deIIWeYPDGX-73" vertex="1"><mxGeometry y="90" width="200" height="30" as="geometry"/></mxCell><mxCell id="2ki1Np-30deIIWeYPDGX-81" value="" style="shape=partialRectangle;connectable=0;fillColor=none;top=0;left=0;bottom=0;right=0;editable=1;overflow=hidden;" parent="2ki1Np-30deIIWeYPDGX-80" vertex="1"><mxGeometry width="30" height="30" as="geometry"><mxRectangle width="30" height="30" as="alternateBounds"/></mxGeometry></mxCell><mxCell id="2ki1Np-30deIIWeYPDGX-82" value="verified_flag" style="shape=partialRectangle;connectable=0;fillColor=none;top=0;left=0;bottom=0;right=0;align=left;spacingLeft=6;overflow=hidden;" parent="2ki1Np-30deIIWeYPDGX-80" vertex="1"><mxGeometry x="30" width="170" height="30" as="geometry"><mxRectangle width="170" height="30" as="alternateBounds"/></mxGeometry></mxCell><mxCell id="2ki1Np-30deIIWeYPDGX-83" value="" style="shape=tableRow;horizontal=0;startSize=0;swimlaneHead=0;swimlaneBody=0;fillColor=none;collapsible=0;dropTarget=0;points=[[0,0.5],[1,0.5]];portConstraint=eastwest;top=0;left=0;right=0;bottom=0;" parent="2ki1Np-30deIIWeYPDGX-73" vertex="1"><mxGeometry y="120" width="200" height="30" as="geometry"/></mxCell><mxCell id="2ki1Np-30deIIWeYPDGX-84" value="" style="shape=partialRectangle;connectable=0;fillColor=none;top=0;left=0;bottom=0;right=0;editable=1;overflow=hidden;" parent="2ki1Np-30deIIWeYPDGX-83" vertex="1"><mxGeometry width="30" height="30" as="geometry"><mxRectangle width="30" height="30" as="alternateBounds"/></mxGeometry></mxCell><mxCell id="2ki1Np-30deIIWeYPDGX-85" value="password" style="shape=partialRectangle;connectable=0;fillColor=none;top=0;left=0;bottom=0;right=0;align=left;spacingLeft=6;overflow=hidden;" parent="2ki1Np-30deIIWeYPDGX-83" vertex="1"><mxGeometry x="30" width="170" height="30" as="geometry"><mxRectangle width="170" height="30" as="alternateBounds"/></mxGeometry></mxCell><mxCell id="2ki1Np-30deIIWeYPDGX-86" value="URL_AUTHORIZED_EMAIL" style="shape=table;startSize=30;container=1;collapsible=1;childLayout=tableLayout;fixedRows=1;rowLines=0;fontStyle=1;align=center;resizeLast=1;" parent="1" vertex="1"><mxGeometry x="434" y="280" width="200" height="120" as="geometry"/></mxCell><mxCell id="2ki1Np-30deIIWeYPDGX-99" value="" style="shape=tableRow;horizontal=0;startSize=0;swimlaneHead=0;swimlaneBody=0;fillColor=none;collapsible=0;dropTarget=0;points=[[0,0.5],[1,0.5]];portConstraint=eastwest;top=0;left=0;right=0;bottom=1;" parent="2ki1Np-30deIIWeYPDGX-86" vertex="1"><mxGeometry y="30" width="200" height="30" as="geometry"/></mxCell><mxCell id="2ki1Np-30deIIWeYPDGX-100" value="PK" style="shape=partialRectangle;connectable=0;fillColor=none;top=0;left=0;bottom=0;right=0;fontStyle=1;overflow=hidden;" parent="2ki1Np-30deIIWeYPDGX-99" vertex="1"><mxGeometry width="30" height="30" as="geometry"><mxRectangle width="30" height="30" as="alternateBounds"/></mxGeometry></mxCell><mxCell id="2ki1Np-30deIIWeYPDGX-101" value="id" style="shape=partialRectangle;connectable=0;fillColor=none;top=0;left=0;bottom=0;right=0;align=left;spacingLeft=6;fontStyle=5;overflow=hidden;" parent="2ki1Np-30deIIWeYPDGX-99" vertex="1"><mxGeometry x="30" width="170" height="30" as="geometry"><mxRectangle width="170" height="30" as="alternateBounds"/></mxGeometry></mxCell><mxCell id="2ki1Np-30deIIWeYPDGX-87" value="" style="shape=tableRow;horizontal=0;startSize=0;swimlaneHead=0;swimlaneBody=0;fillColor=none;collapsible=0;dropTarget=0;points=[[0,0.5],[1,0.5]];portConstraint=eastwest;top=0;left=0;right=0;bottom=1;" parent="2ki1Np-30deIIWeYPDGX-86" vertex="1"><mxGeometry y="60" width="200" height="30" as="geometry"/></mxCell><mxCell id="2ki1Np-30deIIWeYPDGX-88" value="FK" style="shape=partialRectangle;connectable=0;fillColor=none;top=0;left=0;bottom=0;right=0;fontStyle=1;overflow=hidden;" parent="2ki1Np-30deIIWeYPDGX-87" vertex="1"><mxGeometry width="30" height="30" as="geometry"><mxRectangle width="30" height="30" as="alternateBounds"/></mxGeometry></mxCell><mxCell id="2ki1Np-30deIIWeYPDGX-89" value="url_id" style="shape=partialRectangle;connectable=0;fillColor=none;top=0;left=0;bottom=0;right=0;align=left;spacingLeft=6;fontStyle=5;overflow=hidden;" parent="2ki1Np-30deIIWeYPDGX-87" vertex="1"><mxGeometry x="30" width="170" height="30" as="geometry"><mxRectangle width="170" height="30" as="alternateBounds"/></mxGeometry></mxCell><mxCell id="2ki1Np-30deIIWeYPDGX-90" value="" style="shape=tableRow;horizontal=0;startSize=0;swimlaneHead=0;swimlaneBody=0;fillColor=none;collapsible=0;dropTarget=0;points=[[0,0.5],[1,0.5]];portConstraint=eastwest;top=0;left=0;right=0;bottom=0;" parent="2ki1Np-30deIIWeYPDGX-86" vertex="1"><mxGeometry y="90" width="200" height="30" as="geometry"/></mxCell><mxCell id="2ki1Np-30deIIWeYPDGX-91" value="" style="shape=partialRectangle;connectable=0;fillColor=none;top=0;left=0;bottom=0;right=0;editable=1;overflow=hidden;" parent="2ki1Np-30deIIWeYPDGX-90" vertex="1"><mxGeometry width="30" height="30" as="geometry"><mxRectangle width="30" height="30" as="alternateBounds"/></mxGeometry></mxCell><mxCell id="2ki1Np-30deIIWeYPDGX-92" value="email" style="shape=partialRectangle;connectable=0;fillColor=none;top=0;left=0;bottom=0;right=0;align=left;spacingLeft=6;overflow=hidden;" parent="2ki1Np-30deIIWeYPDGX-90" vertex="1"><mxGeometry x="30" width="170" height="30" as="geometry"><mxRectangle width="170" height="30" as="alternateBounds"/></mxGeometry></mxCell><mxCell id="2ki1Np-30deIIWeYPDGX-102" value="" style="edgeStyle=entityRelationEdgeStyle;fontSize=12;html=1;endArrow=ERoneToMany;rounded=0;exitX=1;exitY=0.5;exitDx=0;exitDy=0;entryX=0;entryY=0.5;entryDx=0;entryDy=0;" parent="1" source="2ki1Np-30deIIWeYPDGX-32" target="2ki1Np-30deIIWeYPDGX-87" edge="1"><mxGeometry width="100" height="100" relative="1" as="geometry"><mxPoint x="324" y="600" as="sourcePoint"/><mxPoint x="424" y="500" as="targetPoint"/></mxGeometry></mxCell><mxCell id="2ki1Np-30deIIWeYPDGX-107" value="" style="edgeStyle=entityRelationEdgeStyle;fontSize=12;html=1;endArrow=ERoneToMany;rounded=0;exitX=1;exitY=0.5;exitDx=0;exitDy=0;entryX=0;entryY=0.5;entryDx=0;entryDy=0;" parent="1" source="2ki1Np-30deIIWeYPDGX-60" target="2ki1Np-30deIIWeYPDGX-74" edge="1"><mxGeometry width="100" height="100" relative="1" as="geometry"><mxPoint x="364" y="365" as="sourcePoint"/><mxPoint x="444" y="365" as="targetPoint"/></mxGeometry></mxCell></root></mxGraphModel></diagram></mxfile>